<?xml version="1.0" encoding="UTF-8"?>
<svg version="1.1" xmlns="http://www.w3.org/2000/svg" width="64" height="64">
<path d="M0 0 C8.34468007 4.97590182 13.53387008 11.86345977 16.109375 21.2578125 C17.10789012 32.35758522 16.45884702 41.9922991 9.359375 51.0703125 C3.70168013 57.1280464 -3.34488592 60.84888618 -11.625 61.59375 C-22.35447774 61.83515993 -31.19802606 60.58332943 -39.359375 52.9609375 C-46.75303791 44.73737365 -48.47252567 36.02335615 -48.203125 25.24609375 C-47.72879865 16.86039919 -44.11592977 9.8548755 -37.890625 4.2578125 C-27.15195714 -3.81766573 -12.32399863 -5.91386512 0 0 Z " fill="#005EDF" transform="translate(47.890625,2.7421875)"/>
<path d="M0 0 C0 0.99 0 1.98 0 3 C1.98 3.66 3.96 4.32 6 5 C6 4.34 6 3.68 6 3 C8.91737966 2.88330481 10.39102402 2.8264847 13 4 C14.86316517 6.40408409 16.2407242 8.85712585 17.640625 11.5546875 C18.90267292 13.82492312 20.17234459 15.20459733 22 17 C22 17.66 22 18.32 22 19 C23.65 19 25.3 19 27 19 C26.52354792 23.28806873 25.34097516 25.26647487 22 28 C21.34 28 20.68 28 20 28 C20.05220703 29.04800781 20.05220703 29.04800781 20.10546875 30.1171875 C20.13253906 31.02726562 20.15960938 31.93734375 20.1875 32.875 C20.23970703 34.23238281 20.23970703 34.23238281 20.29296875 35.6171875 C20.19628906 36.40351562 20.09960938 37.18984375 20 38 C19.01 38.66 18.02 39.32 17 40 C16.27617533 42.05925139 16.27617533 42.05925139 16 44 C15.34 44 14.68 44 14 44 C13.896875 44.598125 13.79375 45.19625 13.6875 45.8125 C12.87744486 48.38994819 12.19710995 49.43063575 10 51 C8.33407984 51.04987785 6.66577741 51.05443717 5 51 C2.87490566 44.83856294 1.6362088 39.06537748 1.18359375 32.5625 C0.95274581 29.3404521 0.49630579 26.19053722 0 23 C-0.96421875 23.05800781 -1.9284375 23.11601562 -2.921875 23.17578125 C-4.18515625 23.22089844 -5.4484375 23.26601563 -6.75 23.3125 C-8.00296875 23.37050781 -9.2559375 23.42851562 -10.546875 23.48828125 C-14 23 -14 23 -16.42578125 20.703125 C-18.47095275 17.19131687 -18.50967576 15.00459526 -18 11 C-16.625 8.5625 -16.625 8.5625 -15 7 C-14.34 7 -13.68 7 -13 7 C-12.938125 6.401875 -12.87625 5.80375 -12.8125 5.1875 C-12 3 -12 3 -9.875 1.25 C-6.40721317 -0.2577334 -3.74329002 -0.22019353 0 0 Z " fill="#FAE078" transform="translate(27,7)"/>
<path d="M0 0 C4 0 4 0 5.62304688 1.47094727 C6.14962891 2.14182373 6.67621094 2.8127002 7.21875 3.50390625 C9.73113364 6.55379504 12.29674632 9.30344761 15.21875 11.96484375 C15.92257813 12.62033203 16.62640625 13.27582031 17.3515625 13.95117188 C18.79886339 15.28926733 20.2629525 16.60940329 21.7421875 17.91210938 C26.8376167 22.73761342 26.8376167 22.73761342 27.30371094 26.36108398 C26.53096963 34.51751897 22.67664149 41.19434393 17 47 C12.15662441 50.83433901 6.34924383 54.18708637 0 54 C-2.59400077 52.63641849 -3.96807052 51.18823174 -6 49 C-5.67 47.68 -5.34 46.36 -5 45 C-5 45.99 -5 46.98 -5 48 C-0.33999923 46.87602449 -0.33999923 46.87602449 2.75 43.375 C3.1625 42.59125 3.575 41.8075 4 41 C4.66 41 5.32 41 6 41 C6.12375 40.195625 6.2475 39.39125 6.375 38.5625 C6.58125 37.716875 6.7875 36.87125 7 36 C7.99 35.505 7.99 35.505 9 35 C9.27740465 32.77283834 9.27740465 32.77283834 9.3125 30.1875 C9.68767676 25.29630666 9.68767676 25.29630666 12.4375 22.6875 C13.283125 22.130625 14.12875 21.57375 15 21 C16.33298974 18.38181544 16.33298974 18.38181544 17 16 C16.278125 16.12375 15.55625 16.2475 14.8125 16.375 C12 16 12 16 9.4375 13.4375 C3 4.86095728 3 4.86095728 3 1 C2.01 0.67 1.02 0.34 0 0 Z " fill="#06469C" transform="translate(37,10)"/>
<path d="M0 0 C1.65 0 3.3 0 5 0 C6.6953125 2.08203125 6.6953125 2.08203125 8.125 4.8125 C9.84809641 8.03981301 11.40608035 10.44445194 14 13 C14 13.66 14 14.32 14 15 C15.65 15 17.3 15 19 15 C18.52354792 19.28806873 17.34097516 21.26647487 14 24 C13.34 24 12.68 24 12 24 C12.05220703 25.04800781 12.05220703 25.04800781 12.10546875 26.1171875 C12.13253906 27.02726562 12.15960938 27.93734375 12.1875 28.875 C12.23970703 30.23238281 12.23970703 30.23238281 12.29296875 31.6171875 C12.19628906 32.40351562 12.09960938 33.18984375 12 34 C11.01 34.66 10.02 35.32 9 36 C8.27617533 38.05925139 8.27617533 38.05925139 8 40 C7.34 40 6.68 40 6 40 C5.896875 40.598125 5.79375 41.19625 5.6875 41.8125 C4.87744486 44.38994819 4.19710995 45.43063575 2 47 C-0.6875 47.1875 -0.6875 47.1875 -3 47 C-3.33 45.68 -3.66 44.36 -4 43 C-3.34 43 -2.68 43 -2 43 C-2 42.34 -2 41.68 -2 41 C-1.34 41 -0.68 41 0 41 C0 27.47 0 13.94 0 0 Z " fill="#FAD545" transform="translate(35,11)"/>
<path d="M0 0 C1.19882812 0.15275391 1.19882812 0.15275391 2.421875 0.30859375 C3.02515625 0.39238281 3.6284375 0.47617187 4.25 0.5625 C6.26167675 6.34607065 6.47084624 11.46468999 6.25 17.5625 C5.5384375 16.6034375 5.5384375 16.6034375 4.8125 15.625 C-1.18890343 8.16448111 -1.18890343 8.16448111 -8.75 2.5625 C-8.75 1.9025 -8.75 1.2425 -8.75 0.5625 C-5.62819599 -0.40411363 -3.22916205 -0.42738909 0 0 Z " fill="#0D4A9A" transform="translate(22.75,29.4375)"/>
<path d="M0 0 C0.75 1.75 0.75 1.75 1 4 C-0.625 6.25 -0.625 6.25 -3 8 C-5.75 8.25 -5.75 8.25 -8 8 C-8.33 6.68 -8.66 5.36 -9 4 C-8.34 4 -7.68 4 -7 4 C-7 3.34 -7 2.68 -7 2 C-2.25 0 -2.25 0 0 0 Z " fill="#F9332C" transform="translate(40,50)"/>
<path d="M0 0 C0.66 0 1.32 0 2 0 C0.125 5.75 0.125 5.75 -1 8 C-1.66 8 -2.32 8 -3 8 C-2.25 2.25 -2.25 2.25 0 0 Z " fill="#E3C84D" transform="translate(52,43)"/>
<path d="M0 0 C0.66 0 1.32 0 2 0 C2 1.98 2 3.96 2 6 C1.01 6 0.02 6 -1 6 C-1.33 4.68 -1.66 3.36 -2 2 C-1.34 2 -0.68 2 0 2 C0 1.34 0 0.68 0 0 Z " fill="#FC534D" transform="translate(33,52)"/>
</svg>
